<svg width="17" height="16" xmlns="http://www.w3.org/2000/svg">
  <mask id="mask0_1449_15884" style="mask-type:alpha" maskUnits="userSpaceOnUse" x="0" y="0" width="17" height="16">
    <rect x="0.666504" width="16" height="16" fill="#d9d9d9"/>
  </mask>
  <g mask="url(#mask0_1449_15884)">
    <path d="M14.3001 15.5335L1.1001 2.33354L2.0501 1.38354L15.2501 14.5835L14.3001 15.5335ZM8.0001 12.6669C7.26676 12.6669 6.63899 12.4058 6.11676 11.8835C5.59454 11.3613 5.33343 10.7335 5.33343 10.0002C5.33343 9.26688 5.59454 8.6391 6.11676 8.11688C6.63899 7.59466 7.26676 7.33355 8.0001 7.33355L9.33343 8.66688H8.0001C7.63343 8.66688 7.31954 8.79743 7.05843 9.05855C6.79732 9.31966 6.66676 9.63354 6.66676 10.0002C6.66676 10.3669 6.79732 10.6808 7.05843 10.9419C7.31954 11.203 7.63343 11.3335 8.0001 11.3335H12.0001L14.3668 13.7002C14.2112 13.7891 14.0473 13.8613 13.8751 13.9169C13.7029 13.9724 13.5223 14.0002 13.3334 14.0002C12.9001 14.0002 12.5112 13.8752 12.1668 13.6252C11.8223 13.3752 11.5834 13.0558 11.4501 12.6669H8.0001ZM15.2168 12.6502L12.6834 10.1169C12.7834 10.0835 12.8862 10.0558 12.9918 10.0335C13.0973 10.0113 13.2112 10.0002 13.3334 10.0002C13.889 10.0002 14.3612 10.1947 14.7501 10.5835C15.139 10.9724 15.3334 11.4447 15.3334 12.0002C15.3334 12.1224 15.3223 12.2363 15.3001 12.3419C15.2779 12.4474 15.2501 12.5502 15.2168 12.6502ZM10.8001 8.23355L9.81676 7.25021C10.0723 7.15021 10.2779 6.9891 10.4334 6.76688C10.589 6.54466 10.6668 6.2891 10.6668 6.00021C10.6668 5.63355 10.5362 5.31966 10.2751 5.05855C10.014 4.79743 9.7001 4.66688 9.33343 4.66688H7.23343L5.9001 3.33354H9.33343C10.0668 3.33354 10.6945 3.59466 11.2168 4.11688C11.739 4.6391 12.0001 5.26688 12.0001 6.00021C12.0001 6.46688 11.889 6.89466 11.6668 7.28355C11.4445 7.67243 11.1557 7.9891 10.8001 8.23355ZM4.0001 6.00021C3.44454 6.00021 2.97232 5.80577 2.58343 5.41688C2.19454 5.02799 2.0001 4.55577 2.0001 4.00021C2.0001 3.64466 2.08899 3.31688 2.26676 3.01688C2.44454 2.71688 2.67788 2.47799 2.96676 2.30021L5.7001 5.03355C5.52232 5.32243 5.28343 5.55577 4.98343 5.73355C4.68343 5.91132 4.35565 6.00021 4.0001 6.00021Z" fill="#b6b6bd"/>
  </g>
</svg>
