<svg width="17" height="16" xmlns="http://www.w3.org/2000/svg">
  <mask id="mask0_1449_15879" style="mask-type:alpha" maskUnits="userSpaceOnUse" x="0" y="0" width="17" height="16">
    <rect x="0.333252" width="16" height="16" fill="#d9d9d9"/>
  </mask>
  <g mask="url(#mask0_1449_15879)">
    <path d="M12.9998 14C12.5665 14 12.1776 13.875 11.8332 13.625C11.4887 13.375 11.2498 13.0556 11.1165 12.6667H7.6665C6.93317 12.6667 6.30539 12.4056 5.78317 11.8833C5.26095 11.3611 4.99984 10.7333 4.99984 10C4.99984 9.26667 5.26095 8.63889 5.78317 8.11667C6.30539 7.59444 6.93317 7.33333 7.6665 7.33333H8.99984C9.3665 7.33333 9.68039 7.20278 9.9415 6.94167C10.2026 6.68056 10.3332 6.36667 10.3332 6C10.3332 5.63333 10.2026 5.31944 9.9415 5.05833C9.68039 4.79722 9.3665 4.66667 8.99984 4.66667H5.54984C5.40539 5.05556 5.16373 5.375 4.82484 5.625C4.48595 5.875 4.09984 6 3.6665 6C3.11095 6 2.63873 5.80556 2.24984 5.41667C1.86095 5.02778 1.6665 4.55556 1.6665 4C1.6665 3.44444 1.86095 2.97222 2.24984 2.58333C2.63873 2.19444 3.11095 2 3.6665 2C4.09984 2 4.48595 2.125 4.82484 2.375C5.16373 2.625 5.40539 2.94444 5.54984 3.33333H8.99984C9.73317 3.33333 10.3609 3.59444 10.8832 4.11667C11.4054 4.63889 11.6665 5.26667 11.6665 6C11.6665 6.73333 11.4054 7.36111 10.8832 7.88333C10.3609 8.40556 9.73317 8.66667 8.99984 8.66667H7.6665C7.29984 8.66667 6.98595 8.79722 6.72484 9.05833C6.46373 9.31945 6.33317 9.63333 6.33317 10C6.33317 10.3667 6.46373 10.6806 6.72484 10.9417C6.98595 11.2028 7.29984 11.3333 7.6665 11.3333H11.1165C11.2609 10.9444 11.5026 10.625 11.8415 10.375C12.1804 10.125 12.5665 10 12.9998 10C13.5554 10 14.0276 10.1944 14.4165 10.5833C14.8054 10.9722 14.9998 11.4444 14.9998 12C14.9998 12.5556 14.8054 13.0278 14.4165 13.4167C14.0276 13.8056 13.5554 14 12.9998 14ZM3.6665 4.66667C3.85539 4.66667 4.01373 4.60278 4.1415 4.475C4.26928 4.34722 4.33317 4.18889 4.33317 4C4.33317 3.81111 4.26928 3.65278 4.1415 3.525C4.01373 3.39722 3.85539 3.33333 3.6665 3.33333C3.47761 3.33333 3.31928 3.39722 3.1915 3.525C3.06373 3.65278 2.99984 3.81111 2.99984 4C2.99984 4.18889 3.06373 4.34722 3.1915 4.475C3.31928 4.60278 3.47761 4.66667 3.6665 4.66667Z" fill="#07a88d"/>
  </g>
</svg>
