<svg width="17" height="16" xmlns="http://www.w3.org/2000/svg">
  <path d="M4.41053 14C3.7158 14 3.12106 13.7526 2.62632 13.2579C2.13158 12.7632 1.88422 12.1684 1.88422 11.4737C1.88422 10.7789 2.13158 10.1842 2.62632 9.68947C3.12106 9.19474 3.7158 8.94737 4.41053 8.94737C5.10527 8.94737 5.70001 9.19474 6.19474 9.68947C6.68948 10.1842 6.93685 10.7789 6.93685 11.4737C6.93685 12.1684 6.68948 12.7632 6.19474 13.2579C5.70001 13.7526 5.10527 14 4.41053 14ZM11.9895 14C11.2947 14 10.7 13.7526 10.2053 13.2579C9.71053 12.7632 9.46316 12.1684 9.46316 11.4737C9.46316 10.7789 9.71053 10.1842 10.2053 9.68947C10.7 9.19474 11.2947 8.94737 11.9895 8.94737C12.6842 8.94737 13.279 9.19474 13.7737 9.68947C14.2684 10.1842 14.5158 10.7789 14.5158 11.4737C14.5158 12.1684 14.2684 12.7632 13.7737 13.2579C13.279 13.7526 12.6842 14 11.9895 14ZM4.41053 12.7368C4.7579 12.7368 5.05527 12.6132 5.30264 12.3658C5.55001 12.1184 5.67369 11.8211 5.67369 11.4737C5.67369 11.1263 5.55001 10.8289 5.30264 10.5816C5.05527 10.3342 4.7579 10.2105 4.41053 10.2105C4.06316 10.2105 3.7658 10.3342 3.51843 10.5816C3.27106 10.8289 3.14737 11.1263 3.14737 11.4737C3.14737 11.8211 3.27106 12.1184 3.51843 12.3658C3.7658 12.6132 4.06316 12.7368 4.41053 12.7368ZM11.9895 12.7368C12.3368 12.7368 12.6342 12.6132 12.8816 12.3658C13.129 12.1184 13.2526 11.8211 13.2526 11.4737C13.2526 11.1263 13.129 10.8289 12.8816 10.5816C12.6342 10.3342 12.3368 10.2105 11.9895 10.2105C11.6421 10.2105 11.3447 10.3342 11.0974 10.5816C10.85 10.8289 10.7263 11.1263 10.7263 11.4737C10.7263 11.8211 10.85 12.1184 11.0974 12.3658C11.3447 12.6132 11.6421 12.7368 11.9895 12.7368ZM8.20001 10.1474C7.86316 10.1474 7.57895 10.0316 7.34737 9.8C7.1158 9.56842 7.00001 9.28421 7.00001 8.94737C7.00001 8.61053 7.1158 8.32632 7.34737 8.09474C7.57895 7.86316 7.86316 7.74737 8.20001 7.74737C8.53685 7.74737 8.82106 7.86316 9.05264 8.09474C9.28422 8.32632 9.40001 8.61053 9.40001 8.94737C9.40001 9.28421 9.28422 9.56842 9.05264 9.8C8.82106 10.0316 8.53685 10.1474 8.20001 10.1474ZM8.20001 7.05263C7.50527 7.05263 6.91053 6.80526 6.4158 6.31053C5.92106 5.81579 5.67369 5.22105 5.67369 4.52632C5.67369 3.83158 5.92106 3.23684 6.4158 2.74211C6.91053 2.24737 7.50527 2 8.20001 2C8.89474 2 9.48948 2.24737 9.98422 2.74211C10.479 3.23684 10.7263 3.83158 10.7263 4.52632C10.7263 5.22105 10.479 5.81579 9.98422 6.31053C9.48948 6.80526 8.89474 7.05263 8.20001 7.05263ZM8.20001 5.78947C8.54738 5.78947 8.84474 5.66579 9.09211 5.41842C9.33948 5.17105 9.46316 4.87368 9.46316 4.52632C9.46316 4.17895 9.33948 3.88158 9.09211 3.63421C8.84474 3.38684 8.54738 3.26316 8.20001 3.26316C7.85264 3.26316 7.55527 3.38684 7.3079 3.63421C7.06053 3.88158 6.93685 4.17895 6.93685 4.52632C6.93685 4.87368 7.06053 5.17105 7.3079 5.41842C7.55527 5.66579 7.85264 5.78947 8.20001 5.78947Z" fill="#6f7787"/>
</svg>
