<svg width="17" height="16" xmlns="http://www.w3.org/2000/svg">
  <mask id="mask0_1444_15097" style="mask-type:alpha" maskUnits="userSpaceOnUse" x="0" y="0" width="17" height="16">
    <rect x="0.400024" width="16" height="16" fill="#d9d9d9"/>
  </mask>
  <g mask="url(#mask0_1444_15097)">
    <path d="M3.8 13.5C3.16667 12.8889 2.66389 12.1694 2.29167 11.3417C1.91945 10.5139 1.73334 9.62222 1.73334 8.66667C1.73334 7.74444 1.90834 6.87778 2.25834 6.06667C2.60834 5.25556 3.08334 4.55 3.68334 3.95C4.28334 3.35 4.98889 2.875 5.8 2.525C6.61111 2.175 7.47778 2 8.4 2C9.32223 2 10.1889 2.175 11 2.525C11.8111 2.875 12.5167 3.35 13.1167 3.95C13.7167 4.55 14.1917 5.25556 14.5417 6.06667C14.8917 6.87778 15.0667 7.74444 15.0667 8.66667C15.0667 9.62222 14.8806 10.5167 14.5083 11.35C14.1361 12.1833 13.6333 12.9 13 13.5L12.0667 12.5667C12.5778 12.0778 12.9833 11.4972 13.2833 10.825C13.5833 10.1528 13.7333 9.43333 13.7333 8.66667C13.7333 7.17778 13.2167 5.91667 12.1833 4.88333C11.15 3.85 9.88889 3.33333 8.4 3.33333C6.91111 3.33333 5.65 3.85 4.61667 4.88333C3.58334 5.91667 3.06667 7.17778 3.06667 8.66667C3.06667 9.43333 3.21667 10.15 3.51667 10.8167C3.81667 11.4833 4.22778 12.0611 4.75 12.55L3.8 13.5ZM5.68334 11.6167C5.29445 11.25 4.98334 10.8139 4.75 10.3083C4.51667 9.80278 4.4 9.25556 4.4 8.66667C4.4 7.55556 4.78889 6.61111 5.56667 5.83333C6.34445 5.05556 7.28889 4.66667 8.4 4.66667C9.51111 4.66667 10.4556 5.05556 11.2333 5.83333C12.0111 6.61111 12.4 7.55556 12.4 8.66667C12.4 9.25556 12.2833 9.80556 12.05 10.3167C11.8167 10.8278 11.5056 11.2611 11.1167 11.6167L10.1667 10.6667C10.4444 10.4111 10.6639 10.1111 10.825 9.76667C10.9861 9.42222 11.0667 9.05556 11.0667 8.66667C11.0667 7.93333 10.8056 7.30556 10.2833 6.78333C9.76111 6.26111 9.13334 6 8.4 6C7.66667 6 7.03889 6.26111 6.51667 6.78333C5.99445 7.30556 5.73334 7.93333 5.73334 8.66667C5.73334 9.06667 5.81389 9.43611 5.975 9.775C6.13612 10.1139 6.35556 10.4111 6.63334 10.6667L5.68334 11.6167ZM8.4 10C8.03334 10 7.71945 9.86944 7.45834 9.60833C7.19723 9.34722 7.06667 9.03333 7.06667 8.66667C7.06667 8.3 7.19723 7.98611 7.45834 7.725C7.71945 7.46389 8.03334 7.33333 8.4 7.33333C8.76667 7.33333 9.08056 7.46389 9.34167 7.725C9.60278 7.98611 9.73334 8.3 9.73334 8.66667C9.73334 9.03333 9.60278 9.34722 9.34167 9.60833C9.08056 9.86944 8.76667 10 8.4 10Z" fill="#6f7787"/>
  </g>
</svg>
