<svg width="16" height="16" xmlns="http://www.w3.org/2000/svg">
  <mask id="mask0_1444_15080" style="mask-type:alpha" maskUnits="userSpaceOnUse" x="0" y="0" width="16" height="16">
    <rect width="16" height="16" fill="#d9d9d9"/>
  </mask>

  <g mask="url(#mask0_1444_15080)">
    <path d="M8.00353 7.99961C8.33451 7.99961 8.61667 7.88177 8.85 7.64608C9.08333 7.41038 9.2 7.12704 9.2 6.79608C9.2 6.4651 9.08215 6.18294 8.84647 5.94961C8.61077 5.71628 8.32743 5.59961 7.99647 5.59961C7.66549 5.59961 7.38333 5.71745 7.15 5.95314C6.91667 6.18884 6.8 6.47218 6.8 6.80314C6.8 7.13412 6.91784 7.41628 7.15353 7.64961C7.38923 7.88294 7.67257 7.99961 8.00353 7.99961ZM8 12.8163C9.32222 11.6274 10.3194 10.5329 10.9917 9.53294C11.6639 8.53294 12 7.6385 12 6.84961C12 5.68294 11.6194 4.71628 10.8583 3.94961C10.0972 3.18294 9.14444 2.79961 8 2.79961C6.85555 2.79961 5.90278 3.18294 5.14167 3.94961C4.38055 4.71628 4 5.68294 4 6.84961C4 7.6385 4.33611 8.53294 5.00833 9.53294C5.68055 10.5329 6.67778 11.6274 8 12.8163ZM8 14.3996C6.25583 12.9429 4.95312 11.5898 4.09187 10.3404C3.23062 9.09098 2.8 7.92739 2.8 6.84961C2.8 5.36072 3.29444 4.1135 4.28333 3.10794C5.27222 2.10239 6.50833 1.59961 7.99167 1.59961C9.475 1.59961 10.7139 2.10239 11.7083 3.10794C12.7028 4.1135 13.2 5.36072 13.2 6.84961C13.2 7.92739 12.7722 9.0885 11.9167 10.3329C11.0611 11.5774 9.75555 12.9329 8 14.3996Z" fill="#6f7787"/>
  </g>
</svg>
