<svg xmlns="http://www.w3.org/2000/svg" width="48" height="42">
  <path fill="#D9D9D9" fill-rule="evenodd" d="M48 4v5h-2V6H2v3H0V2C0 .8954305.895431 0 2 0h44c1.104569 0 2 .8954305 2 2v2zm-2 26h-4v-2h4v-3h2v8h-2v-3zM2 30v3H0v-8h2v3h4v2H2zm44-12h-4v-2h4v-3h2v8h-2v-3zM2 18v3H0v-8h2v3h4v2H2zm8-2h4v2h-4v-2zm8 0h4v2h-4v-2zm8 0h4v2h-4v-2zm8 0h4v2h-4v-2zM10 28h4v2h-4v-2zm8 0h4v2h-4v-2zm8 0h4v2h-4v-2zm8 0h4v2h-4v-2zm12 14h-4v-2h4v-3h2v3c0 1.1045695-.895431 2-2 2zM2 40h4v2H2c-1.104569 0-2-.8954305-2-2v-3h2v3zm8 0h4v2h-4v-2zm8 0h4v2h-4v-2zm8 0h4v2h-4v-2zm8 0h4v2h-4v-2zM2 2v2h44V2H2z"/>
</svg>
