  <svg
    xmlns="http://www.w3.org/2000/svg"
    viewBox="0 0 1920 880"
  >
    <defs />
    <defs>
      <linearGradient
        id="a"
        x1="64.8%"
        x2="34.4%"
        y1="-12.6%"
        y2="153.1%"
      >
        <stop
          offset="0%"
          stop-color="#260D50"
        />
        <stop
          offset="100%"
          stop-color="#822DC5"
        />
      </linearGradient>
      <linearGradient
        id="b"
        x1="0%"
        x2="107.4%"
        y1="41.5%"
        y2="41.5%"
      >
        <stop
          offset="0%"
          stop-color="#260D50"
        />
        <stop
          offset="100%"
          stop-color="#822DC5"
        />
      </linearGradient>
    </defs>
    <g
      fill="none"
      fill-rule="evenodd"
      mask="url(#ccard)"
      transform="translate(-63 -285)"
    >
      <g
        stroke="#822DC5"
        stroke-width="6"
      >
        <path
          class="nodepath"
          d="M1444 893h252"
        />
        <path
          class="nodepath"
          stroke-opacity=".4"
          d="M1529 705h232M1452 603h237"
        />
        <path
          class="nodepath"
          d="M1754 563l-332 332h-76M1444 935l121 121M263 859l156 156"
        />
        <path
          class="nodepath"
          stroke-opacity=".4"
          d="M742 781H556"
        />
        <path
          class="nodepath"
          d="M697 736H513"
        />
        <path
          class="nodepath"
          stroke-opacity=".4"
          d="M695 783V577"
        />
        <path
          class="nodepath"
          d="M261 1026V751M509 573V438M1502 415l291 290"
        />
        <path
          class="nodepath"
          stroke-opacity=".4"
          d="M698 912L26 240M1368 411v540l61 61 95-95M1434 3h267l193 192v354"
        />
        <path
          class="nodepath"
          d="M517 411h342l138 138M1416 573v242l371 323"
        />
        <path
          class="nodepath"
          d="M1486 817V612l-146-146M839 243h-97l-83 84v348M1698 1063V817l58-57h122M1069 299L558 810M696 1058H585L468 941V570L322 424"
        />
        <path
          class="nodepath"
          d="M277 528l160 160 236-236 121 121M632 979h-45l-67-67v-86H0M106 669h275M70 707h331M207 745h210M85 784h356M1417 558h228M1609 634h203M528 946h76M619 604v131M1359 567l125 125M1332 594l156 156M1594 1070V959M381 632L260 753"
        />
        <path
          class="nodepath"
          stroke-opacity=".4"
          d="M605 817V497M1851 959h-518M944 570H390"
        />
        <path
          class="nodepath"
          d="M638 912H342M635 1139V912"
        />
      </g>
    </g>
  </svg>
